<?xml version="1.0"?>
<svg xmlns="http://www.w3.org/2000/svg" xmlns:xlink="http://www.w3.org/1999/xlink" width="512px" height="512px" viewBox="0 0 56 56" version="1.1" class=""><g><title class="active-path" style="fill:#F7F6F6" data-old_color="#F9F9F9">046 - 3D puzzle</title><desc class="active-path" style="fill:#F7F6F6" data-old_color="#F9F9F9">Created with Sketch.</desc><defs class="active-path" style="fill:#F7F6F6" data-old_color="#F9F9F9"/><g id="Page-1" stroke="none" stroke-width="1" fill="none" fill-rule="evenodd"><g id="046---3D-puzzle" fill="#000000" fill-rule="nonzero"><path d="M0,10 L0,32 L7,32 C7.55228475,32 8,31.5522847 8,31 C6.50208373,29.8711678 5.7619232,27.9989516 6.083,26.151 C6.104,26.023 6.117,25.894 6.147,25.766 C6.59590431,23.9667199 8.00937765,22.5671268 9.813,22.136 C11.3050726,21.7737703 12.8808514,22.1163013 14.0879102,23.0652482 C15.294969,24.014195 15.9997863,25.4645877 16,27 C15.9959108,28.5661578 15.2550062,30.0390761 14,30.976 L14,31 C14,31.5522847 14.4477153,32 15,32 L22,32 L22,25 C22,23.3431458 23.3431458,22 25,22 L25.107,22 C25.7081773,22.004965 26.2703476,22.2985139 26.618,22.789 C27.0978796,23.4413687 27.8231995,23.8696519 28.626203,23.9747937 C29.4292064,24.0799354 30.2403402,23.8528286 30.872,23.346 C31.0492732,23.203886 31.2102553,23.0425686 31.352,22.865 C31.9346729,22.1334657 32.1428574,21.1720453 31.915,20.265 C31.6575643,19.195364 30.8272123,18.3573057 29.76,18.09 C28.5850353,17.8005347 27.3503925,18.236707 26.618,19.2 C26.436637,19.4452577 26.2021102,19.6462807 25.932,19.788 C25.6691261,19.9260101 25.3768971,19.9987243 25.08,20 C24.2723152,20.0155248 23.4920375,19.7070242 22.9133466,19.1433642 C22.3346556,18.5797042 22.0057318,17.8078137 22,17 L22,10 L0,10 Z" id="Shape" data-original="#000000" class="active-path" data-old_color="#F9F9F9" fill="#FFFFFF"/><path d="M38,35 C39.190133,35.8894843 39.9230277,37.262196 40,38.746 C40.0240976,39.2458532 39.9766173,39.7465845 39.859,40.233 C39.4094825,42.031931 37.9962793,43.4312565 36.193,43.863 C35.9983666,43.9073828 35.801388,43.940769 35.603,43.963 L35.573,43.963 C35.3893337,43.9830992 35.2047587,43.9937799 35.02,43.995 L35.012,43.995 L34.987,43.995 C34.7435342,43.9926146 34.5005626,43.9725619 34.26,43.935 C34.207,43.927 34.154,43.919 34.101,43.909 C33.6056375,43.8177915 33.1269002,43.6522563 32.681,43.418 L32.535,43.338 C30.9608011,42.4638551 29.9888349,40.8005851 30,39 C30.0044035,37.4341944 30.7452747,35.9617129 32,35.025 L32,35 C32,34.4477153 31.5522847,34 31,34 L24,34 L24,41 C24,42.6568542 22.6568542,44 21,44 L20.894,44 C20.2919819,43.995389 19.7290875,43.7009119 19.382,43.209 C18.5918764,42.1603058 17.2106586,41.7487936 15.975431,42.1940662 C14.7402034,42.6393388 13.9392315,43.8374826 13.9999524,45.1491106 C14.0606733,46.4607385 14.9689167,47.5797554 16.24,47.909 C17.4159431,48.2115418 18.6581203,47.773382 19.384,46.8 C19.5103936,46.6353918 19.6615179,46.4913514 19.832,46.373 C20.1456335,46.1373027 20.5257328,46.006753 20.918,46 C21.7260278,45.9839337 22.5068236,46.2921939 23.0859507,46.8559127 C23.6650778,47.4196315 23.9942761,48.1918327 24,49 L24,56 L46,56 L46,34 L39,34 C38.4477153,34 38,34.4477153 38,35 Z" id="Shape" data-original="#000000" class="active-path" data-old_color="#F9F9F9" fill="#FFFFFF"/><polygon id="Shape" points="9.414 0 1.414 8 22.996 8 23.001 7.999 46.587 7.999 54.586 0" data-original="#000000" class="active-path" data-old_color="#F9F9F9" fill="#FFFFFF"/><path d="M24,17 C24,17.5522847 24.4477153,18 25,18 C26.2135511,16.3869672 28.2747963,15.6570824 30.233,16.147 C32.0324334,16.5959881 33.4322941,18.0093423 33.864,19.813 C34.2724997,21.5103507 33.7700049,23.2980508 32.537,24.534 C31.5165597,25.5587166 30.1008075,26.0888086 28.6582991,25.9862797 C27.2157907,25.8837508 25.8892468,25.1587452 25.024,24 L25,24 C24.4477153,24 24,24.4477153 24,25 L24,32 L31,32 C32.6568542,32 34,33.3431458 34,35 L34,35.1 C33.995389,35.7020181 33.7009119,36.2649125 33.209,36.612 C32.4617061,37.163372 32.0147616,38.0320862 32.0006358,38.9606656 C31.9865099,39.889245 32.4068234,40.7711522 33.137,41.345 C33.8683622,41.9280222 34.8297995,42.1365801 35.737,41.909 C36.8069076,41.6516862 37.6453231,40.821362 37.913,39.754 C37.948592,39.6056209 37.9736544,39.4549123 37.988,39.303 C38.0924157,38.2585419 37.640568,37.2359989 36.798,36.61 C36.3045208,36.2553193 36.0084467,35.6876584 36,35.08 C35.9844752,34.2723152 36.2929758,33.4920375 36.8566358,32.9133466 C37.4202958,32.3346556 38.1921863,32.0057318 39,32 L46,32 L46,10 L24,10 L24,17 Z" id="Shape" data-original="#000000" class="active-path" data-old_color="#F9F9F9" fill="#FFFFFF"/><path d="M21,48 C20.4079875,48.7865708 19.5982121,49.3821677 18.671,49.713 C17.7385037,50.0406227 16.7307189,50.0892744 15.771,49.853 C13.9717199,49.4040957 12.5721268,47.9906224 12.141,46.187 C11.7804803,44.6864884 12.12885,43.1035261 13.086,41.893 C13.2047132,41.7434653 13.331572,41.6005823 13.466,41.465 C14.4865356,40.4411036 15.9019016,39.9116389 17.3438819,40.0143496 C18.7858622,40.1170602 20.1118933,40.8417914 20.977,42 L21,42 C21.5522847,42 22,41.5522847 22,41 L22,34 L15,34 C13.3431458,34 12,32.6568542 12,31 L12,30.9 C12.0050061,30.2978411 12.2998373,29.7349816 12.792,29.388 C13.5549943,28.8323543 14.0044475,27.9438658 14,27 C13.9987478,26.0750876 13.5720587,25.2021735 12.8429973,24.6330214 C12.113936,24.0638693 11.1635694,23.8617654 10.266,24.085 C9.19636396,24.3424357 8.35830565,25.1727877 8.091,26.24 C8.072,26.32 8.064,26.4 8.051,26.48 C7.85962889,27.5867713 8.30552598,28.7073099 9.205,29.38 C9.70016273,29.7374046 9.99541617,30.309342 10,30.92 C10.0155248,31.7276848 9.7070242,32.5079625 9.1433642,33.0866534 C8.5797042,33.6653444 7.80781368,33.9942682 7,34 L0,34 L0,56 L22,56 L22,49 C22,48.4477153 21.5522847,48 21,48 Z" id="Shape" data-original="#000000" class="active-path" data-old_color="#F9F9F9" fill="#FFFFFF"/><polygon id="Shape" points="48.001 32.999 48.001 33 48.001 33 48.001 54.586 56 46.588 56 1.414 48.001 9.413" data-original="#000000" class="active-path" data-old_color="#F9F9F9" fill="#FFFFFF"/></g></g></g> </svg>
